<?xml version="1.0" standalone="no"?>
<!DOCTYPE svg PUBLIC "-//W3C//DTD SVG 20010904//EN"
 "http://www.w3.org/TR/2001/REC-SVG-20010904/DTD/svg10.dtd">
<svg version="1.0" xmlns="http://www.w3.org/2000/svg"
 width="700.000000pt" height="700.000000pt" viewBox="0 0 700.000000 700.000000"
 preserveAspectRatio="xMidYMid meet">
<metadata>
Created by potrace 1.14, written by Peter Selinger 2001-2017
</metadata>
<g transform="translate(0.000000,700.000000) scale(0.100000,-0.100000)"
fill="#000000" stroke="none">
<path d="M3157 6994 c-1 -1 -54 -5 -117 -9 -63 -3 -128 -8 -145 -10 -16 -2
-62 -6 -101 -10 -39 -3 -80 -7 -90 -9 -11 -2 -48 -7 -84 -11 -57 -5 -384 -57
-450 -70 -14 -3 -37 -7 -52 -10 -73 -14 -266 -58 -373 -85 -66 -17 -128 -33
-138 -35 -82 -18 -508 -156 -602 -195 -11 -4 -47 -18 -80 -31 -137 -52 -400
-166 -560 -244 -235 -114 -305 -181 -350 -338 -16 -56 -16 -168 1 -352 2 -27
6 -75 9 -105 2 -30 7 -75 10 -100 3 -25 7 -65 10 -90 9 -77 35 -251 50 -335 8
-44 17 -96 20 -115 25 -149 93 -435 160 -675 60 -215 198 -614 240 -696 9 -16
14 -29 11 -29 -4 0 25 -67 119 -280 67 -152 246 -498 316 -613 16 -26 29 -50
29 -52 0 -3 23 -42 51 -88 170 -274 263 -408 534 -767 20 -26 161 -196 180
-216 5 -6 39 -44 75 -85 172 -196 432 -453 652 -644 252 -221 460 -379 749
-572 162 -108 196 -122 280 -119 114 4 197 68 237 183 14 41 9 160 -7 193 -12
22 -126 130 -191 179 -14 11 -79 60 -145 109 -98 73 -268 212 -413 337 -86 73
-202 184 -367 350 -285 285 -319 328 -322 409 -1 38 5 63 23 97 26 47 91 98
129 100 11 1 27 2 35 3 8 1 35 -5 59 -13 35 -11 68 -39 165 -139 307 -317 453
-457 631 -607 32 -27 75 -64 94 -81 142 -123 624 -474 651 -474 5 0 10 -4 10
-9 0 -5 21 -18 48 -29 70 -31 187 -26 263 11 107 51 178 155 179 258 0 119
-37 175 -193 290 -123 90 -301 226 -347 265 -14 12 -70 59 -125 105 -177 147
-296 257 -510 473 -329 330 -349 356 -348 442 0 73 40 136 108 171 98 52 150
22 400 -231 162 -163 275 -271 395 -377 47 -41 245 -204 290 -239 25 -19 47
-37 50 -40 8 -9 231 -174 285 -210 28 -19 93 -66 145 -105 142 -108 168 -119
271 -120 78 0 90 3 135 30 56 35 163 157 200 227 64 125 22 266 -108 353 -60
41 -262 187 -268 194 -3 3 -23 19 -45 35 -42 32 -287 226 -295 235 -3 4 -39
35 -80 71 -132 115 -142 124 -233 210 -279 264 -505 508 -528 569 -42 109 31
238 144 255 93 14 107 3 467 -369 142 -147 202 -204 349 -334 101 -90 290
-244 391 -319 47 -35 96 -72 110 -83 14 -11 95 -67 180 -124 180 -122 207
-129 306 -89 69 28 113 68 169 154 154 240 130 351 -115 518 -204 140 -343
245 -530 400 -186 155 -275 237 -481 442 -247 246 -388 404 -578 645 -136 173
-162 205 -186 228 -22 20 -88 57 -104 57 -5 0 -33 -39 -62 -87 -124 -207 -361
-544 -473 -674 -107 -123 -139 -161 -185 -219 -63 -78 -119 -138 -193 -205
-82 -74 -94 -84 -198 -153 -181 -121 -336 -181 -540 -207 -51 -6 -235 -7 -265
-1 -11 2 -42 7 -70 10 -233 31 -490 161 -664 337 -158 158 -220 273 -215 402
4 116 46 182 189 296 376 299 848 783 1121 1147 16 22 35 45 42 53 7 8 21 26
30 40 9 14 22 33 29 41 7 8 35 47 62 85 28 39 54 75 58 80 33 41 293 449 293
459 0 2 17 33 38 67 100 166 266 498 367 733 41 97 75 178 75 180 0 4 -189 3
-193 0z"/>
<path d="M3769 6969 c-14 -15 -47 -78 -74 -141 -149 -351 -269 -599 -417 -860
-162 -286 -402 -657 -540 -833 -230 -293 -292 -369 -378 -465 -14 -15 -50 -56
-80 -91 -88 -103 -464 -475 -595 -589 -146 -127 -222 -192 -236 -201 -17 -10
1 -36 68 -102 102 -100 215 -168 348 -210 194 -62 424 -49 592 33 59 29 215
137 283 196 204 176 552 625 788 1014 61 101 93 136 162 184 96 66 239 93 354
67 133 -31 221 -106 388 -331 66 -88 202 -252 308 -371 100 -112 455 -468 555
-555 306 -269 512 -427 827 -636 65 -43 125 -81 133 -84 13 -5 63 89 130 241
7 17 22 52 34 78 114 256 320 853 356 1034 2 10 12 54 24 98 61 241 130 623
156 870 3 33 8 74 10 90 2 17 7 57 10 90 4 33 10 80 15 105 10 52 6 297 -5
355 -22 112 -120 217 -265 283 -25 11 -79 36 -120 55 -117 54 -185 85 -245
112 -101 45 -427 171 -565 218 -306 103 -686 205 -940 250 -14 3 -52 10 -85
16 -33 6 -71 13 -85 15 -43 7 -174 27 -200 31 -14 2 -43 6 -65 9 -22 3 -61 8
-87 11 -27 3 -67 7 -90 10 -88 10 -136 14 -233 20 -220 14 -207 15 -236 -16z"/>
</g>
</svg>
