<svg xmlns="http://www.w3.org/2000/svg" width="22" height="22" viewBox="0 0 22 22" fill="none">
<path d="M19.383 16.3327C19.383 16.7369 19.2225 17.1244 18.9367 17.4102C18.6509 17.696 18.2633 17.8565 17.8592 17.8565H4.1449C3.74076 17.8565 3.35318 17.696 3.06741 17.4102C2.78164 17.1244 2.62109 16.7369 2.62109 16.3327V7.95183C2.62109 7.54769 2.78164 7.16011 3.06741 6.87434C3.35318 6.58857 3.74076 6.42803 4.1449 6.42803H7.19252L8.71633 4.14233H13.2878L14.8116 6.42803H17.8592C18.2633 6.42803 18.6509 6.58857 18.9367 6.87434C19.2225 7.16011 19.383 7.54769 19.383 7.95183V16.3327Z" stroke="#FAFAFA" stroke-width="1.5" stroke-linecap="round" stroke-linejoin="round"/>
<path d="M11.002 14.8089C12.6852 14.8089 14.0497 13.4445 14.0497 11.7613C14.0497 10.0782 12.6852 8.71373 11.002 8.71373C9.31889 8.71373 7.95443 10.0782 7.95443 11.7613C7.95443 13.4445 9.31889 14.8089 11.002 14.8089Z" stroke="#FAFAFA" stroke-width="1.5" stroke-linecap="round" stroke-linejoin="round"/>
</svg>