<svg width="16" height="17" id="icon" xmlns="http://www.w3.org/2000/svg">
<path d="M11.7351 0.221191C14.4559 0.221191 15.9919 1.75966 15.9999 4.47212V11.9212C15.9999 14.6329 14.4559 16.1722 11.7351 16.1722H4.26396C1.54318 16.1722 0 14.6329 0 11.9212V4.47212C0 1.75966 1.54318 0.221191 4.26396 0.221191H11.7351ZM12.1083 3.51507C11.8835 3.37948 11.6115 3.37948 11.3963 3.51507C11.1795 3.64985 11.0603 3.89789 11.0835 4.14513V12.2721C11.1243 12.6151 11.4115 12.8703 11.7475 12.8703C12.0923 12.8703 12.3795 12.6151 12.4115 12.2721V4.14513C12.4435 3.89789 12.3243 3.64985 12.1083 3.51507ZM8.32657 6.13102C8.11057 5.99544 7.83778 5.99544 7.62258 6.13102C7.40578 6.26661 7.28658 6.51305 7.31058 6.76109V12.2721C7.34178 12.6151 7.62978 12.8703 7.97377 12.8703C8.31857 12.8703 8.60577 12.6151 8.63777 12.2721V6.76109C8.66257 6.51305 8.54177 6.26661 8.32657 6.13102ZM4.48576 9.02612C4.27056 8.89054 3.99856 8.89054 3.77457 9.02612C3.55777 9.16171 3.43857 9.40017 3.47057 9.65619V12.2721C3.50257 12.6151 3.78976 12.8703 4.13456 12.8703C4.47056 12.8703 4.75776 12.6151 4.79856 12.2721V9.65619C4.82176 9.40017 4.70256 9.16171 4.48576 9.02612Z"/>
</svg>
