<svg xmlns="http://www.w3.org/2000/svg" width="20" height="20" viewBox="0 0 20 20" fill="none">
<path d="M15.7826 7.24757C15.9487 7.24757 16.0994 7.32007 16.2186 7.44257C16.3296 7.5734 16.3855 7.7359 16.3693 7.90756C16.3693 7.96423 15.9252 13.5808 15.6715 15.945C15.5127 17.3958 14.5774 18.2766 13.1745 18.3008C12.0958 18.325 11.0414 18.3333 10.0032 18.3333C8.90093 18.3333 7.82302 18.325 6.77672 18.3008C5.42082 18.2683 4.48474 17.3716 4.33399 15.945C4.07302 13.5725 3.63699 7.96423 3.62889 7.90756C3.62079 7.7359 3.6759 7.5734 3.78774 7.44257C3.89796 7.32007 4.05681 7.24757 4.22377 7.24757H15.7826ZM11.7206 1.66663C12.4573 1.66663 13.1154 2.18079 13.3059 2.91411L13.442 3.52244C13.5522 4.01827 13.9818 4.3691 14.4762 4.3691H16.9059C17.2301 4.3691 17.5 4.63826 17.5 4.98076V5.29742C17.5 5.63159 17.2301 5.90908 16.9059 5.90908H3.09488C2.76988 5.90908 2.5 5.63159 2.5 5.29742V4.98076C2.5 4.63826 2.76988 4.3691 3.09488 4.3691H5.52464C6.01821 4.3691 6.44775 4.01827 6.55879 3.52327L6.68603 2.95495C6.88378 2.18079 7.53458 1.66663 8.27939 1.66663H11.7206Z" fill="black"/>
</svg>