<svg xmlns="http://www.w3.org/2000/svg" id="icon">
<path d="M15.5554 0.37619H4.44441C3.26568 0.37619 2.13523 0.843011 1.30174 1.67396C0.468249 2.50491 0 3.63191 0 4.80705V15.8842C0 17.0593 0.468249 18.1863 1.30174 19.0173C2.13523 19.8482 3.26568 20.3151 4.44441 20.3151H10.6902V12.6044H8.08312V9.58569H10.6902V7.36407C10.6376 6.83788 10.701 6.30659 10.876 5.80741C11.051 5.30822 11.3334 4.85322 11.7033 4.47427C12.0733 4.09532 12.5219 3.80158 13.0176 3.61363C13.5134 3.42568 14.0444 3.34806 14.5734 3.3862C15.3496 3.38453 16.1254 3.42336 16.8975 3.50254V6.19324H15.3109C14.0558 6.19324 13.8112 6.78485 13.8112 7.6574V9.5795H16.8106L16.4207 12.5982H13.7926V20.3151H15.5554C16.7342 20.3151 17.8646 19.8482 18.6981 19.0173C19.5316 18.1863 19.9998 17.0593 19.9998 15.8842V4.80705C19.9998 3.63191 19.5316 2.50491 18.6981 1.67396C17.8646 0.843011 16.7342 0.37619 15.5554 0.37619V0.37619Z"/>
</svg>
