<svg xmlns="http://www.w3.org/2000/svg" id="icon">
<path d="M6.15512 0.37616C4.68171 0.37616 3.26864 0.959686 2.22678 1.99837C1.18492 3.03705 0.599609 4.44581 0.599609 5.91473V14.7764C0.599609 16.2454 1.18492 17.6541 2.22678 18.6928C3.26864 19.7315 4.68171 20.315 6.15512 20.315H15.0439C16.5174 20.315 17.9304 19.7315 18.9723 18.6928C20.0141 17.6541 20.5995 16.2454 20.5995 14.7764V5.91473C20.5995 4.44581 20.0141 3.03705 18.9723 1.99837C17.9304 0.959686 16.5174 0.37616 15.0439 0.37616H6.15512ZM17.2661 2.59159C17.4859 2.59159 17.7007 2.65655 17.8834 2.77827C18.0662 2.89999 18.2086 3.07299 18.2927 3.2754C18.3768 3.47781 18.3988 3.70053 18.3559 3.91541C18.313 4.13028 18.2072 4.32766 18.0518 4.48258C17.8964 4.63749 17.6984 4.74299 17.4829 4.78573C17.2674 4.82847 17.044 4.80654 16.8409 4.7227C16.6379 4.63886 16.4644 4.49688 16.3423 4.31472C16.2202 4.13255 16.155 3.91839 16.155 3.6993C16.1567 3.40602 16.2743 3.12521 16.4823 2.91783C16.6903 2.71044 16.972 2.59321 17.2661 2.59159V2.59159ZM10.5995 4.80702C11.6983 4.80702 12.7724 5.13185 13.686 5.74044C14.5996 6.34902 15.3117 7.21403 15.7322 8.22607C16.1526 9.23811 16.2627 10.3517 16.0483 11.4261C15.8339 12.5005 15.3048 13.4874 14.5279 14.262C13.7509 15.0365 12.761 15.564 11.6834 15.7777C10.6057 15.9914 9.48867 15.8818 8.47353 15.4626C7.45839 15.0434 6.59074 14.3335 5.98029 13.4227C5.36985 12.5118 5.04402 11.441 5.04402 10.3456C5.04402 8.87667 5.62933 7.46791 6.67119 6.42923C7.71305 5.39054 9.12612 4.80702 10.5995 4.80702V4.80702ZM10.5995 7.02245C9.94027 7.02245 9.29581 7.21735 8.74765 7.5825C8.19949 7.94765 7.77225 8.46665 7.51996 9.07388C7.26767 9.6811 7.20166 10.3493 7.33027 10.9939C7.45889 11.6385 7.77636 12.2307 8.24253 12.6954C8.7087 13.1602 9.30264 13.4767 9.94924 13.6049C10.5958 13.7331 11.2661 13.6673 11.8751 13.4158C12.4842 13.1643 13.0048 12.7383 13.3711 12.1918C13.7373 11.6453 13.9328 11.0028 13.9328 10.3456C13.9328 9.46424 13.5817 8.61898 12.9565 7.99577C12.3314 7.37256 11.4836 7.02245 10.5995 7.02245V7.02245Z"/>
</svg>
