<svg width="12" height="11" id="icon" xmlns="http://www.w3.org/2000/svg">
<path d="M4.57143 7.32998C6.76336 7.32998 8.61356 7.67835 8.61356 9.02543C8.61356 10.3715 6.75152 10.7082 4.57143 10.7082L4.42253 10.7077C2.29635 10.6919 0.529297 10.3292 0.529297 9.01278C0.529297 7.66675 2.39134 7.32998 4.57143 7.32998ZM7.99263 6.51899C8.82625 6.50318 9.72282 6.61544 10.0538 6.69449C10.7556 6.82888 11.2168 7.10241 11.4078 7.50137C11.5698 7.82813 11.5698 8.20759 11.4078 8.53434C11.1156 9.15202 10.1727 9.35071 9.80624 9.40183C9.73036 9.41237 9.66955 9.34913 9.67762 9.27429C9.8649 7.56251 8.3758 6.75088 7.99048 6.56432C7.97434 6.55536 7.97057 6.54271 7.97218 6.53428C7.97326 6.52901 7.98026 6.52057 7.99263 6.51899ZM4.57143 0.808228C6.05622 0.808228 7.24609 1.97349 7.24609 3.42755C7.24609 4.88162 6.05622 6.04688 4.57143 6.04688C3.08718 6.04688 1.89677 4.88162 1.89677 3.42755C1.89677 1.97349 3.08718 0.808228 4.57143 0.808228ZM8.13794 1.24571C9.57214 1.24571 10.698 2.56644 10.3143 4.03738C10.0554 5.02872 9.11847 5.68697 8.07443 5.6601C7.96949 5.65799 7.8667 5.64797 7.76661 5.63164C7.69449 5.61899 7.6579 5.53941 7.69934 5.48038C8.09757 4.90645 8.32468 4.21551 8.32468 3.47504C8.32468 2.70136 8.07712 1.98092 7.64606 1.38906C7.63206 1.37062 7.62184 1.34269 7.63583 1.32108C7.6466 1.30421 7.66812 1.29473 7.68803 1.29051C7.83334 1.26152 7.98241 1.24571 8.13794 1.24571Z"/>
</svg>
