<svg width="18" height="14" id="icon" xmlns="http://www.w3.org/2000/svg">
<path d="M8.9583 9.48783C11.7656 9.48783 14.1627 9.93154 14.1627 11.7071C14.1627 13.4819 11.781 13.9418 8.9583 13.9418C6.15096 13.9418 3.75389 13.4981 3.75389 11.7232C3.75389 9.9477 6.13558 9.48783 8.9583 9.48783ZM13.4469 8.41869C14.5201 8.39885 15.674 8.54577 16.1004 8.65009C17.0037 8.82713 17.5978 9.18856 17.844 9.7138C18.052 10.145 18.052 10.6453 17.844 11.0758C17.4674 11.8904 16.2535 12.152 15.7817 12.2195C15.6842 12.2342 15.6059 12.1498 15.6161 12.0521C15.8571 9.79461 13.9399 8.72428 13.4439 8.47819C13.4227 8.46717 13.4183 8.45027 13.4205 8.43999C13.422 8.43264 13.4308 8.42089 13.4469 8.41869ZM4.55367 8.41898C4.56979 8.42119 4.57785 8.43294 4.57931 8.43955C4.58151 8.45057 4.57712 8.46673 4.5566 8.47848C4.0599 8.72458 2.14268 9.7949 2.3837 12.0516C2.39396 12.1501 2.31631 12.2338 2.21887 12.2198C1.74707 12.1523 0.533151 11.8907 0.156594 11.0761C-0.0521979 10.6448 -0.0521979 10.1453 0.156594 9.71409C0.402748 9.18885 0.996156 8.82742 1.89945 8.64965C2.32656 8.54607 3.47968 8.39915 4.55367 8.41898ZM8.9583 0.890869C10.8697 0.890869 12.4023 2.4262 12.4023 4.34352C12.4023 6.26012 10.8697 7.79692 8.9583 7.79692C7.04694 7.79692 5.51433 6.26012 5.51433 4.34352C5.51433 2.4262 7.04694 0.890869 8.9583 0.890869ZM13.6337 1.46665C15.4798 1.46665 16.9297 3.20841 16.4359 5.14851C16.1026 6.45464 14.896 7.32221 13.5516 7.28695C13.4168 7.28328 13.2842 7.27079 13.156 7.24875C13.063 7.23259 13.0161 7.12754 13.0689 7.04967C13.5817 6.29303 13.874 5.38285 13.874 4.40582C13.874 3.38618 13.5546 2.4356 13 1.65618C12.9824 1.63194 12.9692 1.59448 12.9868 1.56656C13.0015 1.54379 13.0286 1.53203 13.0542 1.52616C13.241 1.48796 13.433 1.46665 13.6337 1.46665ZM4.36576 1.46658C4.56649 1.46658 4.75843 1.48788 4.94598 1.52608C4.97089 1.53196 4.99873 1.54445 5.01338 1.56649C5.03023 1.5944 5.01778 1.63187 5.00019 1.65611C4.44561 2.43553 4.1262 3.38611 4.1262 4.40575C4.1262 5.38277 4.41851 6.29295 4.93133 7.0496C4.98408 7.12747 4.93719 7.23252 4.84415 7.24868C4.71521 7.27145 4.58334 7.2832 4.44854 7.28688C3.10422 7.32214 1.89762 6.45457 1.56429 5.14843C1.06978 3.20834 2.5196 1.46658 4.36576 1.46658Z"/>
</svg>
