<svg xmlns="http://www.w3.org/2000/svg" width="24" height="21" viewBox="0 0 24 21" fill="none">
  <g clip-path="url(#clip0_3049_3195)">
    <path d="M12.0279 6.70291C15.222 6.70291 18.4161 6.70291 21.6094 6.70291C23.0751 6.70291 23.9975 7.58267 23.9982 8.97844C23.9982 10.0161 24.0005 11.0538 23.9982 12.0914C23.9953 13.3956 23.0476 14.3 21.6784 14.3007C15.2257 14.3021 8.77302 14.3021 2.32107 14.3007C0.951123 14.3007 0.00492635 13.3956 0.00195789 12.0907C-0.000268453 11.027 -0.00101057 9.96253 0.00195789 8.89878C0.00566847 7.61087 0.954834 6.70502 2.30771 6.70361C5.54778 6.7008 8.78786 6.70291 12.0279 6.70291ZM5.77784 11.0298C5.94482 11.3435 6.0873 11.5987 6.21717 11.8595C6.31587 12.0576 6.45094 12.2049 6.69955 12.1866C6.94667 12.1683 7.05428 12.0054 7.12626 11.7961C7.39268 11.0206 7.67023 10.2487 7.94036 9.47471C8.05094 9.1582 7.96188 8.93191 7.70066 8.84098C7.43647 8.74933 7.21457 8.8875 7.09509 9.22235C6.92886 9.68549 6.76559 10.1493 6.58378 10.6625C6.44203 10.3947 6.34704 10.1529 6.19491 9.94984C6.09992 9.82295 5.91736 9.67985 5.77487 9.68126C5.63239 9.68196 5.45354 9.82788 5.35854 9.95548C5.2079 10.1578 5.11365 10.3982 4.97264 10.6653C4.78415 10.1303 4.61791 9.64742 4.44352 9.16736C4.34333 8.89032 4.11773 8.76273 3.87654 8.83393C3.61532 8.91076 3.50474 9.14057 3.60418 9.42889C3.88025 10.229 4.16448 11.0263 4.44055 11.8264C4.51031 12.028 4.62905 12.1725 4.86207 12.188C5.09732 12.2035 5.23387 12.0682 5.33034 11.8799C5.46689 11.6135 5.60938 11.3505 5.77784 11.0312V11.0298ZM11.1945 10.6618C11.0127 10.1486 10.8495 9.68408 10.6832 9.22094C10.563 8.88609 10.3411 8.74863 10.0769 8.84027C9.81495 8.93121 9.72663 9.15608 9.83721 9.4733C10.1073 10.2473 10.3849 11.0192 10.6513 11.7947C10.7233 12.004 10.8309 12.1669 11.078 12.1852C11.3266 12.2035 11.461 12.0555 11.5604 11.8581C11.6932 11.5945 11.838 11.3357 12.0012 11.0319C12.1682 11.3477 12.3114 11.6107 12.4472 11.8771C12.5437 12.0661 12.6803 12.2007 12.9148 12.1852C13.1478 12.1704 13.2673 12.0259 13.337 11.8236C13.5292 11.2652 13.7289 10.7091 13.9248 10.1514C14.0183 9.88498 14.1185 9.62063 14.2001 9.35135C14.2676 9.12718 14.1474 8.91993 13.927 8.84098C13.7088 8.76273 13.4825 8.85226 13.3764 9.06797C13.3296 9.16243 13.3014 9.26535 13.2658 9.36545C13.1174 9.77995 12.9697 10.1945 12.8042 10.659C12.6632 10.3918 12.5489 10.1825 12.4413 9.96958C12.3508 9.79123 12.2253 9.66011 12.002 9.65941C11.7786 9.6587 11.6517 9.7877 11.5604 9.96605C11.4491 10.1853 11.3311 10.4017 11.1945 10.6611V10.6618ZM19.0283 10.6639C18.8866 10.3968 18.7715 10.1874 18.6647 9.97522C18.5749 9.79687 18.4517 9.66363 18.2283 9.66011C17.9916 9.65729 17.8654 9.79757 17.7726 9.98579C17.6673 10.1987 17.55 10.4059 17.4142 10.659C17.2287 10.1338 17.0617 9.65377 16.8888 9.17582C16.7827 8.88186 16.5541 8.75427 16.3033 8.83745C16.0465 8.92275 15.9478 9.14762 16.0502 9.44158C16.3248 10.2325 16.6068 11.022 16.8799 11.8137C16.9489 12.0146 17.061 12.1647 17.294 12.1845C17.5426 12.2056 17.6799 12.0604 17.7801 11.863C17.9136 11.5987 18.0576 11.3386 18.2224 11.0298C18.3923 11.352 18.5378 11.6226 18.6788 11.8955C18.7723 12.0752 18.9096 12.1972 19.1307 12.1859C19.3504 12.1746 19.481 12.0463 19.5478 11.8539C19.8328 11.0383 20.1207 10.2234 20.399 9.40563C20.4309 9.31187 20.4569 9.16313 20.4057 9.10674C20.2958 8.98619 20.1437 8.85578 19.9886 8.82688C19.7778 8.7867 19.6331 8.94319 19.5649 9.13493C19.3905 9.62486 19.2198 10.1155 19.0283 10.6632V10.6639Z" fill="#292929"/>
    <path d="M11.1628 0.00292969C8.73013 0.677552 7.49599 2.39195 6.56612 4.38339C6.36797 4.80706 6.23439 5.25822 6.0548 5.69034C6.02437 5.76295 5.91009 5.85107 5.83365 5.85107C4.58467 5.86094 3.33495 5.85812 2.02734 5.85812C2.70044 4.55258 3.60285 3.46275 4.72345 2.53012C6.73681 0.855195 9.25183 0.0776527 11.1628 0.00292969Z" fill="#292929"/>
    <path d="M12.916 20.9966C15.0303 20.4108 16.2555 18.9347 17.1683 17.1639C17.4719 16.5752 17.6767 15.9408 17.9387 15.3324C17.9713 15.2563 18.0745 15.1548 18.1457 15.1541C19.4043 15.1435 20.663 15.1463 21.972 15.1463C21.2284 16.583 20.2162 17.7715 18.9279 18.7471C17.1661 20.0809 15.1602 20.8337 12.916 20.9973V20.9966Z" fill="#292929"/>
    <path d="M21.9341 5.8587H20.9656C20.0951 5.8587 19.2246 5.84672 18.3556 5.86575C18.078 5.8721 17.963 5.80019 17.8784 5.54007C17.4569 4.23665 16.8454 3.02064 15.9281 1.95971C15.1348 1.04259 14.1827 0.342591 12.9434 0.0507483C12.9293 0.0472236 12.9189 0.0296002 12.9062 0.0183213C15.8317 -0.275636 21.1029 3.12356 21.9341 5.85941V5.8587Z" fill="#292929"/>
    <path d="M2.0652 15.1457H2.33904C3.44033 15.1457 4.54238 15.157 5.64367 15.1379C5.92494 15.133 6.03996 15.2063 6.12011 15.4643C6.41844 16.4195 6.84071 17.3275 7.4062 18.1684C8.30119 19.4979 9.42401 20.5666 11.1487 20.9804C8.19061 21.2948 2.91714 17.8956 2.06445 15.1464L2.0652 15.1457Z" fill="#292929"/>
    <path d="M10.0801 5.84382C10.2871 4.44593 10.5283 3.08048 11.1287 1.80172C11.266 1.50988 11.4589 1.23284 11.6704 0.983296C11.8968 0.716126 12.1291 0.706962 12.3331 0.98964C12.6166 1.38299 12.8749 1.80525 13.0589 2.24724C13.5376 3.39558 13.7424 4.60877 13.9213 5.84311H10.0801V5.84382Z" fill="#292929"/>
    <path d="M10.084 15.1572H13.963C13.7782 16.0208 13.6291 16.8681 13.4072 17.6971C13.2536 18.2723 13.0116 18.8278 12.7816 19.3819C12.6955 19.5899 12.5485 19.7823 12.3979 19.9578C12.1062 20.2955 11.8947 20.3032 11.6142 19.9649C11.4213 19.733 11.255 19.4728 11.1274 19.2028C10.6064 18.1039 10.3682 16.9308 10.1686 15.7501C10.1367 15.5597 10.1137 15.368 10.084 15.1572Z" fill="#292929"/>
    <path d="M9.17951 5.85131H6.96875C7.21513 4.24406 9.17803 1.58293 10.4159 1.21777C9.7027 2.70378 9.4207 4.27085 9.17951 5.85131Z" fill="#292929"/>
    <path d="M13.6296 1.22461C15.5065 2.26368 16.3859 3.96892 17.0694 5.84334H14.8178C14.5766 4.26993 14.2976 2.70779 13.6289 1.22461H13.6296Z" fill="#292929"/>
    <path d="M6.95898 15.1567H9.18013C9.42206 16.7344 9.7011 18.2958 10.4061 19.7621C9.33895 19.607 7.40722 17.0213 6.95898 15.1567Z" fill="#292929"/>
    <path d="M14.8191 15.1543H17.0699C16.3901 17.0294 15.5107 18.7375 13.625 19.7843C14.2951 18.3011 14.5771 16.7341 14.8191 15.1543Z" fill="#292929"/>
  </g>
  <defs>
    <clipPath id="clip0_3049_3195">
      <rect width="24" height="21" fill="white"/>
    </clipPath>
  </defs>
</svg>